<svg xmlns="http://www.w3.org/2000/svg" width="45" height="45" viewBox="0 0 45 45" fill="none">
<path d="M21.1766 9.99927V9.26475C21.1766 7.07187 22.9542 5.29428 25.1471 5.29428H27.7941C28.5252 5.29428 29.1175 4.70164 29.1175 3.97055C29.1175 3.23979 28.5252 2.64714 27.7941 2.64714H18.5297C17.7986 2.64714 17.206 2.0545 17.206 1.32341C17.206 0.592654 17.7986 0 18.5297 0H27.7941C29.987 0 31.7646 1.77759 31.7646 3.97047C31.7646 6.16335 29.987 7.94126 27.7941 7.94126H25.1471C24.416 7.94126 23.8233 8.5339 23.8233 9.26467V9.99919C29.7792 10.6577 34.4121 15.7071 34.4121 21.8383C34.4121 23.1523 34.3336 24.5604 34.1798 26.0018C35.9338 27.0602 37.0592 28.976 37.0592 31.1029C37.0592 34.2726 34.5834 36.8638 31.4602 37.0484C29.3458 42.0187 26.3345 45 22.5003 45C18.666 45 15.6548 42.0186 13.5404 37.0484C10.4171 36.8638 7.94141 34.2726 7.94141 31.1029C7.94141 28.9759 9.06673 27.0602 10.8208 26.0018C10.667 24.5603 10.5885 23.1522 10.5885 21.8383C10.5885 15.7069 15.221 10.6573 21.1772 9.99919L21.1766 9.99927ZM32.5641 28.1328C32.5572 28.1296 32.5503 28.1265 32.543 28.123C32.1077 27.9124 31.6193 27.7941 31.1029 27.7941C29.2754 27.7941 27.7941 29.2754 27.7941 31.1029C27.7941 31.834 27.2014 32.4266 26.4703 32.4266C25.7396 32.4266 25.1469 31.834 25.1469 31.1029C25.1469 27.8135 27.8135 25.147 31.1028 25.147C31.271 25.147 31.4377 25.1539 31.6025 25.1677C31.7099 24.0123 31.7645 22.8894 31.7645 21.8382C31.7645 16.7213 27.6167 12.573 22.5001 12.573C17.3835 12.573 13.2356 16.7211 13.2356 21.8382C13.2356 22.8894 13.2902 24.0123 13.3976 25.1677C13.5624 25.1539 13.7291 25.147 13.8973 25.147C17.1867 25.147 19.8532 27.8136 19.8532 31.1029C19.8532 31.834 19.2606 32.4266 18.5298 32.4266C17.7987 32.4266 17.2061 31.834 17.2061 31.1029C17.2061 29.2754 15.7247 27.7941 13.8972 27.7941C13.3247 27.7941 12.7864 27.9394 12.3165 28.1952C12.3092 28.1993 12.302 28.2031 12.2948 28.2065C11.2595 28.7797 10.5885 29.8784 10.5885 31.1029C10.5885 32.9304 12.0698 34.4117 13.8973 34.4117C14.0244 34.4117 14.1503 34.4048 14.2749 34.3906C14.8726 34.3228 15.4404 34.6669 15.6579 35.2275C17.433 39.8085 19.8275 42.353 22.5002 42.353C25.173 42.353 27.5675 39.8085 29.3425 35.2275C29.56 34.6669 30.1279 34.3228 30.7256 34.3906C30.8502 34.4048 30.976 34.4117 31.1032 34.4117C32.9307 34.4117 34.412 32.9304 34.412 31.1029C34.412 29.8237 33.6793 28.6818 32.5644 28.1328L32.5641 28.1328ZM19.8531 36.3968C19.122 36.3968 18.5297 35.8041 18.5297 35.073C18.5297 34.3423 19.122 33.7496 19.8531 33.7496C20.5842 33.7496 21.1768 34.3422 21.1768 35.073C21.1768 35.8041 20.5842 36.3968 19.8531 36.3968ZM25.1473 36.3968C24.4162 36.3968 23.8236 35.8041 23.8236 35.073C23.8236 34.3423 24.4162 33.7496 25.1473 33.7496C25.8784 33.7496 26.4707 34.3422 26.4707 35.073C26.4707 35.8041 25.8784 36.3968 25.1473 36.3968Z" fill="#ffc59e"/>
</svg>