<svg xmlns="http://www.w3.org/2000/svg" width="45" height="46" viewBox="0 0 45 46" fill="none">
<path d="M44.2864 20.2574C41.802 16.8158 38.6425 14.0147 35.0362 12.0568C31.4044 10.0876 27.4053 9.04216 23.3437 9C23.2303 9 22.7766 9 22.6631 9C18.6005 9.04131 14.6002 10.0865 10.9672 12.0558C7.35956 14.0136 4.19882 16.815 1.71357 20.2574C1.25119 20.8979 1 21.6875 1 22.5005C1 23.3134 1.25119 24.103 1.71357 24.7435C4.19797 28.1852 7.35748 30.9862 10.9638 32.9442C14.5957 34.913 18.5948 35.9581 22.6563 36C22.7697 36 23.2234 36 23.3369 36C27.3995 35.9587 31.3998 34.9135 35.0328 32.9442C38.6403 30.9867 41.8011 28.1856 44.2864 24.7435C44.7488 24.103 45 23.3134 45 22.5005C45 21.6875 44.7488 20.8979 44.2864 20.2574ZM23 34.0664C20.8873 34.0664 18.8221 33.388 17.0655 32.1171C15.3088 30.8462 13.9397 29.0397 13.1312 26.9263C12.3227 24.8128 12.1112 22.4872 12.5234 20.2435C12.9355 17.9999 13.9529 15.9389 15.4468 14.3213C16.9407 12.7038 18.844 11.6022 20.9161 11.1559C22.9881 10.7096 25.1359 10.9386 27.0878 11.8141C29.0396 12.6895 30.7079 14.172 31.8817 16.0741C33.0554 17.9761 33.6819 20.2124 33.6819 22.5C33.6787 25.5665 32.5523 28.5065 30.5497 30.6749C28.5472 32.8432 25.832 34.0629 23 34.0664ZM11.763 31.2097C8.39532 29.3811 5.44482 26.7654 3.12465 23.5515C2.90799 23.2514 2.79028 22.8814 2.79028 22.5005C2.79028 22.1195 2.90799 21.7496 3.12465 21.4494C6.09814 17.316 10.106 14.195 14.6711 12.4578C13.3674 13.7225 12.3245 15.2706 11.6106 17.0011C10.8967 18.7316 10.5277 20.6056 10.5277 22.5009C10.5277 24.3962 10.8967 26.2703 11.6106 28.0008C12.3245 29.7313 13.3674 31.2793 14.6711 32.544C13.6769 32.1655 12.7056 31.7198 11.763 31.2097ZM42.8719 23.5515C40.5519 26.7655 37.6013 29.3813 34.2336 31.2097C33.2942 31.7181 32.3264 32.1626 31.3358 32.5403C32.6392 31.2756 33.6818 29.7277 34.3956 27.9973C35.1093 26.267 35.4782 24.3932 35.4782 22.4981C35.4782 20.6031 35.1093 18.7293 34.3956 16.9989C33.6818 15.2686 32.6392 13.7206 31.3358 12.456C35.898 14.1957 39.9031 17.3168 42.8754 21.4485C43.0921 21.7488 43.2098 22.1189 43.2098 22.5C43.2098 22.8811 43.0921 23.2512 42.8754 23.5515H42.8719Z" fill="#ffc59e"/>
<path d="M22.9996 17.917C22.0954 17.917 21.2115 18.1858 20.4596 18.6893C19.7078 19.1929 19.1218 19.9087 18.7757 20.7461C18.4297 21.5835 18.3392 22.505 18.5156 23.394C18.692 24.283 19.1274 25.0995 19.7668 25.7405C20.4062 26.3814 21.2208 26.8179 22.1077 26.9947C22.9945 27.1715 23.9138 27.0808 24.7492 26.7339C25.5846 26.387 26.2986 25.7996 26.801 25.046C27.3034 24.2923 27.5715 23.4063 27.5715 22.4999C27.5703 21.2848 27.0883 20.1198 26.2312 19.2605C25.374 18.4013 24.2118 17.9181 22.9996 17.917ZM22.9996 25.2875C22.4494 25.2875 21.9115 25.124 21.454 24.8175C20.9966 24.5111 20.64 24.0755 20.4295 23.5659C20.219 23.0564 20.1639 22.4956 20.2713 21.9547C20.3787 21.4138 20.6438 20.9169 21.0329 20.5269C21.422 20.137 21.9178 19.8715 22.4574 19.764C22.9971 19.6565 23.5565 19.7118 24.0648 19.923C24.573 20.1342 25.0074 20.4918 25.313 20.9504C25.6186 21.4091 25.7816 21.9483 25.7814 22.4999C25.7807 23.2392 25.4874 23.9481 24.9659 24.4709C24.4443 24.9937 23.7372 25.2877 22.9996 25.2884V25.2875Z" fill="#ffc59e"/>
</svg>