<svg xmlns="http://www.w3.org/2000/svg" width="45" height="45" viewBox="0 0 45 45" fill="none">
<path fill-rule="evenodd" clip-rule="evenodd" d="M37.1141 1.30906C37.5259 1.72091 37.5259 2.38916 37.1141 2.80103L27.4741 12.4401L31.8433 20.0059L43.082 8.7691C43.4938 8.35725 44.1617 8.35725 44.5739 8.7691C44.9858 9.18095 44.9858 9.84884 44.5739 10.2611L32.9356 21.8976L33.5827 23.0186C34.5671 24.7235 34.0369 26.8877 32.4097 27.9526L32.2313 28.0625C31.5888 28.4333 30.8813 28.5891 30.1922 28.5524C30.2632 29.8924 29.5952 31.2237 28.3522 31.9414C27.7101 32.3119 27.003 32.4681 26.3142 32.4313C26.3842 33.7717 25.7162 35.1027 24.4733 35.8201C22.9054 36.7258 20.9489 36.3499 19.8165 35.0179L10.2598 44.5747C9.84757 44.9866 9.17968 44.9866 8.7678 44.5747C8.35595 44.1625 8.35595 43.4946 8.7678 43.0827L18.4656 33.3849C18.5373 33.3136 18.6164 33.2542 18.7012 33.2076L14.3108 25.6032L2.80086 37.1149C2.38901 37.5268 1.72076 37.5268 1.30889 37.1149C0.897038 36.7031 0.897038 36.0352 1.30889 35.623L13.2194 23.7116L12.5733 22.5915C11.5885 20.8866 12.1187 18.7228 13.746 17.6579L13.9247 17.548C14.5665 17.1772 15.2737 17.0214 15.9628 17.0578C15.8928 15.7177 16.5604 14.3868 17.8033 13.669C18.4455 13.2985 19.1526 13.1424 19.8414 13.1791C19.7714 11.839 20.4394 10.5078 21.6823 9.79007C23.2506 8.88476 25.207 9.26025 26.3394 10.5926L35.6222 1.30889C36.0344 0.897038 36.7023 0.897038 37.1142 1.30889L37.1141 1.30906ZM17.1406 19.9542C16.7295 19.2418 15.8478 18.9701 15.1146 19.305L14.979 19.3749L14.8508 19.4572C14.2351 19.8956 14.0161 20.7133 14.3301 21.4009L14.4001 21.5366L21.257 33.4127C21.6939 34.1696 22.6617 34.4289 23.4186 33.992C24.1307 33.5808 24.4023 32.6992 24.0675 31.9659L23.9975 31.8303L17.1406 19.9542ZM21.0193 16.0752C20.6082 15.3628 19.7269 15.0915 18.9936 15.426L18.858 15.496L18.7294 15.5786C18.1141 16.017 17.8948 16.8347 18.2088 17.522L18.2787 17.6576L25.1357 29.5346C25.5726 30.2916 26.5404 30.5508 27.2973 30.1139C28.0097 29.7028 28.2814 28.8211 27.9465 28.0879L27.8766 27.9523L21.0193 16.0752ZM24.8986 12.1963C24.4871 11.4839 23.6058 11.2122 22.8726 11.5471L22.737 11.617L22.6087 11.6997C21.9931 12.138 21.7741 12.9557 22.0878 13.643L22.1577 13.7787L29.015 25.6557C29.4519 26.4123 30.4197 26.6719 31.1763 26.2346C31.8887 25.8235 32.1603 24.9422 31.8255 24.209L31.7555 24.0733L24.8986 12.1963Z" fill="#ffc59e"/>
</svg>