<svg xmlns="http://www.w3.org/2000/svg" width="45" height="45" viewBox="0 0 45 45" fill="none">
<path d="M35.465 6.82269C33.7273 4.70021 30.2215 2.69228 23.3699 5.09063H21.2167C14.3664 2.68977 10.8588 4.70021 9.12606 6.82269C5.76918 10.9147 6.45216 18.8482 10.7173 25.7978C10.76 33.457 12.1734 38.7684 14.9191 41.5794L15.2973 41.9686H18.0934L21.9934 26.7091H22.5902L26.4902 41.9686H29.2863L29.6645 41.5794C32.4107 38.7656 33.824 33.4575 33.8663 25.7978C38.134 18.848 38.817 10.9144 35.4648 6.82269H35.465ZM31.4923 24.7624L31.2968 25.0715V25.4364C31.2968 31.8595 30.3037 36.5496 28.4132 39.1056L24.5955 24.1655H19.991L16.1733 39.1056C14.2828 36.5509 13.2897 31.8598 13.2897 25.4364V25.0715L13.0942 24.7624C9.34359 18.8288 8.47541 11.6512 11.1197 8.42276C13.3474 5.70167 17.4786 6.45058 20.5525 7.55547L20.7661 7.63296H23.8194L24.033 7.55547C27.1069 6.45189 31.2355 5.70385 33.4658 8.42276C36.1108 11.6518 35.2426 18.8238 31.4922 24.7624H31.4923Z" fill="#ffc59e"/>
</svg>