<svg xmlns="http://www.w3.org/2000/svg" width="42" height="42" viewBox="0 0 42 42" fill="none">
<g clip-path="url(#clip0_1151_2982)">
<path fill-rule="evenodd" clip-rule="evenodd" d="M24.8546 9.91279L26.2023 11.2655C26.308 11.365 26.3922 11.4853 26.4498 11.6188C26.5074 11.7522 26.5371 11.8962 26.5371 12.0416C26.5371 12.1871 26.5074 12.331 26.4498 12.4645C26.3922 12.598 26.308 12.7182 26.2023 12.8178C26.0996 12.9217 25.9774 13.0042 25.8428 13.0605C25.7082 13.1167 25.5638 13.1457 25.418 13.1457C25.2722 13.1457 25.1278 13.1167 24.9932 13.0605C24.8585 13.0042 24.7364 12.9217 24.6337 12.8178L23.286 11.4651L20.4359 14.3479L21.7836 15.7005C21.9916 15.9093 22.1085 16.1925 22.1085 16.4878C22.1085 16.783 21.9916 17.0662 21.7836 17.275C21.5756 17.4838 21.2934 17.6011 20.9993 17.6011C20.7051 17.6011 20.423 17.4838 20.2149 17.275L18.8672 15.9001L16.0171 18.7829L17.3649 20.1356C17.5729 20.3444 17.6897 20.6276 17.6897 20.9228C17.6897 21.2181 17.5729 21.5013 17.3649 21.71C17.1568 21.9188 16.8747 22.0361 16.5805 22.0361C16.2864 22.0361 16.0042 21.9188 15.7962 21.71L14.4485 20.3352L11.51 23.2845L18.7789 30.6023L34.9072 14.4144L31.2618 10.7776L27.6384 7.11871L24.8546 9.91279ZM12.0845 27.0099L9.30068 29.7819L10.7368 31.2232L12.1508 32.6646L14.9346 29.8706L12.0845 27.0099ZM9.87512 33.6625L1.87722 41.6678C1.77805 41.7739 1.65826 41.8584 1.52526 41.9162C1.39226 41.974 1.24887 42.0038 1.10395 42.0038C0.95902 42.0038 0.815631 41.974 0.682632 41.9162C0.549634 41.8584 0.429848 41.7739 0.330669 41.6678C0.227129 41.5647 0.144947 41.4421 0.0888639 41.307C0.0327807 41.1719 0.00390625 41.027 0.00390625 40.8806C0.00390625 40.7342 0.0327807 40.5893 0.0888639 40.4542C0.144947 40.3191 0.227129 40.1964 0.330669 40.0934L8.37275 31.9994L6.95876 30.5802C6.85522 30.4771 6.77304 30.3545 6.71695 30.2193C6.66087 30.0842 6.632 29.9393 6.632 29.7929C6.632 29.6466 6.66087 29.5016 6.71695 29.3665C6.77304 29.2314 6.85522 29.1088 6.95876 29.0057L10.5158 25.4355L9.16812 24.0828C9.06458 23.9797 8.9824 23.8571 8.92632 23.722C8.87023 23.5869 8.84136 23.4419 8.84136 23.2956C8.84136 23.1492 8.87023 23.0043 8.92632 22.8692C8.9824 22.7341 9.06458 22.6114 9.16812 22.5084L26.0698 5.54426L23.9929 3.45978C23.8104 3.24898 23.7138 2.97678 23.7225 2.6976C23.7312 2.41841 23.8446 2.15282 24.04 1.95392C24.2354 1.75501 24.4984 1.63745 24.7764 1.62474C25.0544 1.61202 25.3269 1.70509 25.5395 1.88534L28.4117 4.74595L32.0571 8.3827L36.0119 4.4355L33.4932 1.88534C33.3875 1.78579 33.3033 1.66556 33.2457 1.53207C33.1882 1.39858 33.1585 1.25466 33.1585 1.1092C33.1585 0.96374 33.1882 0.819822 33.2457 0.686331C33.3033 0.552841 33.3875 0.432612 33.4932 0.333067C33.5924 0.227001 33.7122 0.142464 33.8452 0.0846746C33.9782 0.0268853 34.1216 -0.00292969 34.2665 -0.00292969C34.4114 -0.00292969 34.5548 0.0268853 34.6878 0.0846746C34.8208 0.142464 34.9406 0.227001 35.0398 0.333067L38.3317 3.63719L41.6237 6.9413C41.7272 7.04438 41.8094 7.16701 41.8655 7.30212C41.9216 7.43724 41.9504 7.58216 41.9504 7.72853C41.9504 7.8749 41.9216 8.01982 41.8655 8.15493C41.8094 8.29004 41.7272 8.41268 41.6237 8.51575C41.4172 8.71891 41.1395 8.8327 40.8504 8.8327C40.5612 8.8327 40.2836 8.71891 40.0771 8.51575L37.5584 6.00994L33.6258 9.97932L40.1213 16.6319C40.227 16.7315 40.3112 16.8517 40.3688 16.9852C40.4264 17.1187 40.4561 17.2626 40.4561 17.408C40.4561 17.5535 40.4264 17.6974 40.3688 17.8309C40.3112 17.9644 40.227 18.0846 40.1213 18.1842C40.0186 18.2881 39.8964 18.3706 39.7618 18.4269C39.6272 18.4832 39.4828 18.5121 39.337 18.5121C39.1911 18.5121 39.0468 18.4832 38.9121 18.4269C38.7775 18.3706 38.6553 18.2881 38.5527 18.1842L36.4759 16.0997L19.5742 32.9529C19.4715 33.0568 19.3493 33.1393 19.2147 33.1956C19.0801 33.2519 18.9357 33.2809 18.7899 33.2809C18.6441 33.2809 18.4997 33.2519 18.3651 33.1956C18.2304 33.1393 18.1083 33.0568 18.0056 32.9529L16.5032 31.445L12.9461 35.0152C12.7359 35.2198 12.4546 35.3342 12.1618 35.3342C11.869 35.3342 11.5877 35.2198 11.3775 35.0152L9.9414 33.5738L9.87512 33.6625Z" fill="#ffc59e"/>
</g>
<defs fill="#000000">
<clipPath id="clip0_1151_2982" fill="#000000">
<rect width="42" height="42" fill="white"/>
</clipPath>
</defs>
</svg>