<?xml version="1.0" standalone="no"?>
<!DOCTYPE svg PUBLIC "-//W3C//DTD SVG 20010904//EN"
 "http://www.w3.org/TR/2001/REC-SVG-20010904/DTD/svg10.dtd">
<svg version="1.0" xmlns="http://www.w3.org/2000/svg"
 width="50.000000pt" height="50.000000pt" viewBox="0 0 50.000000 50.000000"
 preserveAspectRatio="xMidYMid meet">

<g transform="translate(0.000000,50.000000) scale(0.100000,-0.100000)"
fill="#000000" stroke="none">
<path d="M60 440 c-18 -18 -20 -33 -20 -190 0 -225 -15 -210 210 -210 225 0
210 -15 210 210 0 225 15 210 -210 210 -157 0 -172 -2 -190 -20z m375 -190 l0
-185 -185 0 -185 0 -3 175 c-1 96 0 180 3 187 3 11 44 13 187 11 l183 -3 0
-185z"/>
<path d="M182 267 c-34 -35 -59 -66 -55 -70 4 -4 33 18 65 50 l58 57 58 -57
c32 -32 61 -54 65 -50 7 6 -110 133 -123 133 -3 0 -34 -28 -68 -63z"/>
</g>
</svg>
